                                                                        S      1
1H,,1H;,,                                                               G      1
114HC:\Users\Viacheslav\Documents\Work\Work\2017_05_19_IGA_Shells_AbaqusG      2
\IGA-shells-Abaqus\Scordelis\Pure_geometry.igs,                         G      3
26HRhinoceros ( Jan 18 2007 ),31HTrout Lake IGES 012 Jan 18 2007,       G      4
32,38,6,308,15,                                                         G      5
,                                                                       G      6
1.0D0,2,2HMM,1,0.254D0,13H170610.142526,                                G      7
0.001D0,                                                                G      8
50D0,                                                                   G      9
,                                                                       G     10
,                                                                       G     11
10,0,13H170610.142526;                                                  G     12
     314       1       0       0       0       0       0       000000200D      1
     314       0       1       1       0       0       0   COLOR       0D      2
     406       2       0       0       1       0       0       000000300D      3
     406       0      -1       1       3       0       0LEVELDEF       0D      4
     128       3       0       0       1       0       0       000000000D      5
     128       0      -1       7       0       0       0 TrimSrf       0D      6
314,0.0,0.0,0.0,20HRGB(   0,   0,   0 );                         0000001P      1
406,2,1,7HDefault;                                               0000003P      2
128,2,1,2,1,0,0,0,0,0,0.0D0,0.0D0,0.0D0,32.139380484D0,          0000005P      3
32.139380484D0,32.139380484D0,0.0D0,0.0D0,50.0D0,50.0D0,1.0D0,   0000005P      4
0.766D0,1.0D0,1.0D0,0.766D0,1.0D0,-16.069690242D0,0.0D0,         0000005P      5
19.151111078D0,0.0D0,0.0D0,32.63520000000001D0,16.069690242D0,   0000005P      6
0.0D0,19.151111078D0,-16.069690242D0,50.0D0,19.151111078D0,      0000005P      7
0.0D0,50.0D0,32.63520000000001D0,16.069690242D0,50.0D0,          0000005P      8
19.151111078D0,0.0D0,32.139380484D0,0.0D0,50.0D0;                0000005P      9
S0000001G0000012D0000006P0000009                                        T      1
